<?xml version="1.0" encoding="utf-8"?>
<!-- Generator: Adobe Illustrator 20.1.0, SVG Export Plug-In . SVG Version: 6.00 Build 0)  -->
<!DOCTYPE svg PUBLIC "-//W3C//DTD SVG 1.1//EN" "http://www.w3.org/Graphics/SVG/1.1/DTD/svg11.dtd">
<svg version="1.1" id="Layer_1" xmlns="http://www.w3.org/2000/svg" xmlns:xlink="http://www.w3.org/1999/xlink" x="0px" y="0px"
	 viewBox="0 0 479 155.5" style="enable-background:new 0 0 479 155.5;" xml:space="preserve">
<style type="text/css">
	.st0{fill:#166DB7;}
	.st1{fill:#93CEF1;}
	.st2{fill:#0097D9;}
</style>
<g>
	<path class="st0" d="M224.6,110.4h-2.4c-1.9,0-3.7,0.3-5.6,0.8c-1.9,0.5-3.8,1.1-5.9,1.7c-2.1,0.6-4.3,1.2-6.7,1.7
		c-2.4,0.5-5.1,0.8-8.1,0.8c-5.3,0-10-0.9-14.1-2.7c-4.1-1.8-7.6-4.2-10.4-7.4c-2.8-3.1-5-6.8-6.4-11c-1.5-4.2-2.2-8.7-2.2-13.6
		c0-2.9,0.3-5.9,0.9-8.9c0.6-3,1.6-5.8,2.8-8.5c1.3-2.7,2.8-5.2,4.7-7.6c1.9-2.3,4.1-4.4,6.6-6.1c2.5-1.7,5.3-3.1,8.5-4.1
		c3.1-1,6.6-1.5,10.4-1.5c1.3,0,2.7,0.1,4.3,0.3c1.6,0.2,3.2,0.5,4.9,0.9c1.7,0.4,3.3,0.9,4.9,1.5c1.6,0.6,3,1.3,4.3,2.1h0.1
		l-0.3-4.1h7.5v22.8H216c-0.4-2.7-1.2-5.1-2.3-7.2c-1.1-2-2.4-3.7-4-5.1s-3.4-2.4-5.4-3.1c-2-0.7-4.1-1-6.4-1
		c-3.4,0-6.3,0.8-8.8,2.3c-2.5,1.6-4.6,3.6-6.2,6.2c-1.6,2.6-2.8,5.5-3.6,8.8c-0.8,3.3-1.2,6.7-1.2,10.2c0,4.2,0.4,8.1,1.3,11.6
		c0.9,3.5,2.2,6.6,3.9,9.2c1.7,2.6,3.8,4.6,6.3,6c2.5,1.4,5.4,2.1,8.8,2.1c1,0,2-0.1,3.2-0.2c1.2-0.1,2.4-0.3,3.7-0.5
		c1.3-0.2,2.5-0.5,3.7-0.8c1.2-0.3,2.2-0.7,3.2-1.2v-9c0-0.9,0-1.8,0-2.6c0-0.9,0-1.7,0.1-2.4c0-0.8,0.1-1.5,0.1-2.1
		c0-0.6,0.1-1.2,0.2-1.6l-7.3,0.3v-7.5h25.9v6.4c-1.1,0.1-2.1,0.2-2.9,0.4c-0.8,0.2-1.5,0.6-2,1.2c-0.5,0.6-0.9,1.4-1.2,2.5
		c-0.3,1.1-0.4,2.6-0.4,4.4V110.4z"/>
	<path class="st0" d="M255.7,98.1c0,0.5,0,1,0,1.7c0,0.7,0,1.4-0.1,2.1c0,0.8-0.1,1.5-0.1,2.4s-0.1,1.6-0.2,2.3l6.3-0.3v7.4h-25.5
		v-6.3c1.4,0,2.4-0.2,3.2-0.6c0.8-0.4,1.4-1,1.7-1.8c0.4-0.8,0.6-1.7,0.7-2.7c0.1-1.1,0.1-2.2,0.1-3.5V82.6c0-1.2,0-2.5,0.1-4
		c0-1.5,0.2-3,0.3-4.5l-6.8,0.3V67c2.2,0,4.2-0.1,6-0.3c1.7-0.2,3.2-0.4,4.4-0.7c1.2-0.3,2.2-0.6,2.9-0.9c0.7-0.3,1.3-0.7,1.6-1h5.3
		V98.1z M257.1,47.5c0,1.1-0.2,2.1-0.5,3.1c-0.3,1-0.8,1.8-1.4,2.5c-0.6,0.7-1.4,1.3-2.3,1.7c-0.9,0.4-1.9,0.6-3,0.6
		c-1.1,0-2.1-0.2-3.1-0.6c-0.9-0.4-1.7-1-2.4-1.7c-0.7-0.7-1.2-1.6-1.5-2.5c-0.4-1-0.5-2-0.5-3.1c0-1.1,0.2-2.2,0.6-3.1
		c0.4-1,0.9-1.8,1.6-2.6c0.7-0.7,1.5-1.3,2.4-1.7c0.9-0.4,1.8-0.6,2.9-0.6c1,0,2,0.2,2.9,0.6c0.9,0.4,1.7,1,2.4,1.7
		c0.7,0.7,1.2,1.6,1.5,2.6C256.9,45.3,257.1,46.4,257.1,47.5z"/>
	<path class="st0" d="M301.7,63.5c1.1,0,2.2,0.2,3.3,0.5c1,0.3,1.9,0.8,2.7,1.4c0.8,0.6,1.4,1.5,1.9,2.5c0.5,1,0.7,2.2,0.7,3.7
		c0,0.8-0.1,1.5-0.4,2.4c-0.3,0.8-0.7,1.5-1.2,2.2c-0.5,0.7-1.2,1.2-2.1,1.6c-0.9,0.4-1.9,0.6-3.2,0.6c-0.7,0-1.3-0.1-2-0.3
		c-0.7-0.2-1.3-0.5-1.9-0.9c-0.6-0.4-1.1-1-1.5-1.7c-0.4-0.7-0.7-1.7-0.8-2.8c-1,0-2,0.3-3,1c-1,0.6-1.9,1.5-2.8,2.4
		c-0.9,1-1.6,2-2.3,3.1c-0.7,1.1-1.1,2.1-1.4,3v15.9c0,0.5,0,1,0,1.7c0,0.7,0,1.4-0.1,2.1c0,0.8-0.1,1.5-0.1,2.4s-0.1,1.6-0.2,2.3
		l6.3-0.3v7.4H268v-6.3c1.4,0,2.4-0.2,3.2-0.6c0.8-0.4,1.4-1,1.7-1.8c0.4-0.8,0.6-1.7,0.7-2.7c0.1-1.1,0.1-2.2,0.1-3.5V82.3
		c0-1.2,0-2.5,0.1-3.9c0-1.4,0.2-2.9,0.3-4.3l-6.8,0.3V67c2.2,0,4.2-0.1,6-0.3c1.7-0.2,3.2-0.4,4.4-0.7c1.2-0.3,2.2-0.6,2.9-0.9
		c0.7-0.3,1.3-0.7,1.6-1h4.8l0.4,8.4h0.1c0.6-0.9,1.4-1.8,2.3-2.9c0.9-1,1.9-2,3.1-2.9c1.2-0.9,2.5-1.7,3.9-2.3
		C298.4,63.8,300,63.5,301.7,63.5z"/>
	<path class="st0" d="M359.7,40.2v57.8c0,0.5,0,1,0,1.7c0,0.7,0,1.4-0.1,2.1c0,0.8-0.1,1.5-0.1,2.4s-0.1,1.6-0.2,2.3l6.3-0.3v7.4
		h-18.5l-0.5-4.5h-0.1c-2.2,2.3-4.4,3.8-6.7,4.7c-2.3,0.9-4.6,1.4-7.1,1.4c-2.9,0-5.6-0.6-8-1.7c-2.4-1.2-4.5-2.8-6.2-4.9
		c-1.7-2.1-3.1-4.7-4-7.8c-1-3-1.4-6.4-1.4-10.2c0-3.9,0.6-7.5,1.7-10.9c1.2-3.3,2.8-6.2,4.9-8.6c2.1-2.4,4.6-4.3,7.6-5.7
		c3-1.4,6.3-2,9.9-2c1.8,0,3.4,0.2,4.8,0.5c1.4,0.4,2.7,0.8,3.9,1.2v-6.5c0-0.5,0-1,0-1.7c0-0.7,0-1.4,0.1-2.1
		c0-0.8,0.1-1.5,0.1-2.4c0-0.8,0.1-1.6,0.2-2.3l-6.8,0.3v-7.4c2.3,0,4.2-0.1,6-0.3c1.7-0.2,3.2-0.4,4.4-0.7c1.2-0.3,2.2-0.6,2.9-0.9
		c0.7-0.3,1.3-0.7,1.6-1H359.7z M337.9,106.4c1.6,0,3.2-0.4,4.6-1.3c1.4-0.9,2.6-2,3.4-3.3V72.5c-0.7-0.5-1.7-0.9-2.9-1.3
		c-1.2-0.4-2.6-0.5-4-0.5c-2.3,0.1-4.1,0.6-5.6,1.7c-1.5,1.1-2.7,2.5-3.6,4.2c-0.9,1.7-1.5,3.7-1.9,5.9c-0.4,2.2-0.5,4.4-0.5,6.7
		c0,2.1,0.2,4.2,0.6,6.2c0.4,2.1,1,3.9,1.8,5.5c0.8,1.6,1.9,3,3.3,4C334.4,105.9,336,106.4,337.9,106.4z"/>
	<path class="st0" d="M417.3,87.5l-32,0.6c0,2.7,0.2,5.1,0.7,7.4c0.5,2.3,1.3,4.2,2.4,5.8s2.5,2.9,4.2,3.9c1.7,0.9,3.9,1.4,6.4,1.4
		c1,0,2.1-0.1,3.3-0.4c1.2-0.3,2.4-0.7,3.7-1.2c1.3-0.6,2.5-1.3,3.8-2.3c1.3-0.9,2.5-2.1,3.6-3.4l4.4,4.1c-1.7,2.5-3.6,4.5-5.6,6.1
		c-2,1.6-3.9,2.8-5.9,3.6c-2,0.9-3.9,1.4-5.8,1.7c-1.9,0.3-3.7,0.5-5.3,0.5c-3.6,0-6.8-0.6-9.8-1.8c-2.9-1.2-5.5-2.9-7.6-5.2
		c-2.1-2.3-3.8-5-4.9-8.1c-1.2-3.2-1.7-6.7-1.7-10.7c0-3.4,0.6-6.7,1.7-9.8c1.2-3.1,2.8-5.9,4.9-8.3c2.1-2.4,4.7-4.3,7.7-5.8
		c3-1.4,6.3-2.1,10-2.1c1.8,0,3.6,0.2,5.4,0.5c1.8,0.3,3.5,0.8,5.1,1.6c1.6,0.7,3.2,1.7,4.6,2.9c1.4,1.2,2.6,2.7,3.6,4.5
		c1,1.8,1.8,3.9,2.4,6.3C417.1,81.6,417.4,84.4,417.3,87.5z M395.9,70.3c-1.4,0-2.7,0.3-3.8,0.8c-1.1,0.5-2.1,1.3-2.9,2.2
		c-0.8,1-1.5,2.1-2,3.4c-0.5,1.3-0.9,2.8-1.1,4.4h17.9c-0.1-2-0.3-3.7-0.7-5.1c-0.4-1.4-1-2.5-1.7-3.4c-0.7-0.9-1.5-1.5-2.5-1.9
		C398,70.5,397,70.3,395.9,70.3z"/>
	<path class="st0" d="M458.1,63.5c1.1,0,2.2,0.2,3.3,0.5c1,0.3,1.9,0.8,2.7,1.4c0.8,0.6,1.4,1.5,1.9,2.5c0.5,1,0.7,2.2,0.7,3.7
		c0,0.8-0.1,1.5-0.4,2.4c-0.3,0.8-0.7,1.5-1.2,2.2c-0.5,0.7-1.2,1.2-2.1,1.6c-0.9,0.4-1.9,0.6-3.2,0.6c-0.7,0-1.3-0.1-2-0.3
		c-0.7-0.2-1.3-0.5-1.9-0.9c-0.6-0.4-1.1-1-1.5-1.7c-0.4-0.7-0.7-1.7-0.8-2.8c-1,0-2,0.3-3,1c-1,0.6-1.9,1.5-2.8,2.4
		c-0.9,1-1.6,2-2.3,3.1c-0.7,1.1-1.1,2.1-1.4,3v15.9c0,0.5,0,1,0,1.7c0,0.7,0,1.4-0.1,2.1c0,0.8-0.1,1.5-0.1,2.4s-0.1,1.6-0.2,2.3
		l6.3-0.3v7.4h-25.5v-6.3c1.4,0,2.4-0.2,3.2-0.6c0.8-0.4,1.4-1,1.7-1.8c0.4-0.8,0.6-1.7,0.7-2.7c0.1-1.1,0.1-2.2,0.1-3.5V82.3
		c0-1.2,0-2.5,0.1-3.9c0-1.4,0.2-2.9,0.3-4.3l-6.8,0.3V67c2.2,0,4.2-0.1,6-0.3c1.7-0.2,3.2-0.4,4.4-0.7c1.2-0.3,2.2-0.6,2.9-0.9
		c0.7-0.3,1.3-0.7,1.6-1h4.8l0.4,8.4h0.1c0.6-0.9,1.4-1.8,2.3-2.9c0.9-1,1.9-2,3.1-2.9c1.2-0.9,2.5-1.7,3.9-2.3
		C454.8,63.8,456.4,63.5,458.1,63.5z"/>
</g>
<g>
	<path class="st1" d="M61.3,79.2c0.1,0.9,0.5,1.6,1.2,2.2L76,92c1.4,1.1,3.5,0.8,4.5-0.5l10.7-13.5c1.1-1.4,0.9-3.4-0.5-4.5
		L77.1,62.7c-0.6-0.5-1.3-0.7-2-0.7c-1,0-1.9,0.4-2.5,1.2L61.9,76.8C61.4,77.5,61.2,78.3,61.3,79.2z M69.5,76.4l4.5-5.7
		c0.8-1.1,2.5-1.3,3.6-0.4l5.7,4.5c0.5,0.4,0.9,1,1,1.7c0.1,0.7-0.1,1.3-0.5,1.9l-4.5,5.7c-0.5,0.6-1.2,1-2,1
		c-0.6,0-1.1-0.2-1.6-0.5L69.9,80C68.8,79.1,68.6,77.5,69.5,76.4z"/>
	<path class="st0" d="M131.3,43.8l-66-29.6c-2.2-1-4.6-1.5-6.9-1.5c-6.4,0-12.6,3.7-15.4,10l-29.6,66c-3.8,8.5,0,18.5,8.5,22.3
		l66,29.6c2.2,1,4.6,1.5,6.9,1.5c6.4,0,12.6-3.7,15.4-10l29.6-66C143.6,57.6,139.8,47.6,131.3,43.8z M130,67.9l-25.1,55.8
		c-2.4,5.3-7.6,8.4-13,8.4c-2,0-3.9-0.4-5.8-1.3l-55.8-25.1c-7.2-3.2-10.4-11.7-7.2-18.8l25.1-55.8c2.4-5.3,7.6-8.4,13-8.4
		c2,0,3.9,0.4,5.8,1.3L122.8,49C130,52.2,133.2,60.7,130,67.9z"/>
	<g>
		<path class="st2" d="M122.2,50.5L66.4,25.5c-1.6-0.7-3.4-1.1-5.1-1.1c-4.9,0-9.5,2.9-11.5,7.4L24.7,87.6c-2.8,6.3,0,13.8,6.3,16.6
			l55.8,25.1c1.6,0.7,3.4,1.1,5.1,1.1c4.9,0,9.5-2.9,11.5-7.4l25.1-55.8C131.3,60.8,128.5,53.4,122.2,50.5z M121.9,54.9l-13.2,5.6
			l-32-25.9L121.9,54.9z M81.7,99.2l-9.3-7.9l-10.9-8.6c-0.6-0.5-1.1-1.1-1.4-1.7l-5.7,1.7L67,67.7l4.3-5.5c0.5-0.6,1.1-1,1.8-1.3
			l-1.6-5.3l12.7,10.5l7.6,6c0.6,0.5,1.1,1.1,1.4,1.7l5.2-1.6l-8.7,10.4l-7.8,9.8c-0.5,0.6-1.1,1.1-1.7,1.4L81.7,99.2z M73.2,98.6
			c-6.4-2.2-14.4-5-21.5-7.5l8.4-3.6L73.2,98.6z M93.2,67.1L79.9,56.1c6.6,2.2,14.8,4.9,22,7.4L93.2,67.1z M94.9,55.8
			c-2-0.7-4.1-1.4-6.2-2.1c-4.9-1.6-9.8-3.3-13.4-4.5c-1.8-0.6-3.4-1.1-4.5-1.4c-0.6-0.2-1.2-0.4-1.8-0.5l-5-16.5L94.9,55.8z
			 M62.9,52.6l3.4,8.1L55.7,73.3C57.8,67.1,60.5,59.5,62.9,52.6z M54.4,32.7l5.4,12.7L34.2,76.2L54.4,32.7z M29.1,90.2l26.5-32
			c-0.7,2-1.4,4.1-2.2,6.2c-1.7,4.9-3.4,9.7-4.6,13.4c-0.6,1.8-1.1,3.4-1.5,4.5c-0.3,1-0.6,1.9-0.6,2.6L29.1,90.2z M31.9,99.6
			l12.9-5.5l31.3,26L31.9,99.6z M58.2,98.7c2,0.7,4.1,1.4,6.2,2.2c4.9,1.7,9.7,3.4,13.4,4.6c1.8,0.6,3.4,1.1,4.5,1.5
			c0.7,0.2,1.3,0.4,1.9,0.5l5.1,17L58.2,98.7z M90.6,102.8l-3.8-8.9c0,0,0.1-0.1,0.1-0.1l11.3-13.6C95.9,87,93.1,95.4,90.6,102.8z
			 M99,122.6l-5.7-13.3c0,0,0.1-0.1,0.1-0.1l26.2-32.1L99,122.6z M98.4,95.2c0.7-2,1.4-4.1,2.1-6.2c1.6-4.9,3.3-9.8,4.5-13.4
			c0.6-1.8,1.1-3.4,1.5-4.5c0.2-0.5,0.3-1,0.4-1.4l16.3-4.9L98.4,95.2z"/>
	</g>
</g>
</svg>
